# xmcd CD database file
#
# Track frame offsets:
#	150
#	119210
#	221298
#	230448
#
# Disc length: 3776 seconds
#
# Revision: 0
# Processed by: cddbd v1.5.1PL0 Copyright (c) Steve Scherf et al.
# Submitted via: CDex 1.51
#
DISCID=350ebe04
DTITLE=John Kerr - John Kerr - Norland Revisited [CD 02] THE 20 YEAR JUBILEE Limited Edition
DYEAR=2002
DGENRE=New Age
TTITLE0=Polar Choralis - The Awake01] The 20 YEarth
TTITLE1=Warm Snow, Cold Sun - Hymn Of The Midnight Sun
TTITLE2=Two Minutes Rest
TTITLE3=The Mountain Sleeps - Sunrise Sunsett (Cathedral Bonus)
EXTD=YEAR: 2002
EXTT0=
EXTT1=
EXTT2=
EXTT3=
PLAYORDER=
